PathFileType	4	(X/Y/Z)	D:\TRACE\v60_Jaco2_6-2-23\JustArmDRS_Motion3_2-v60.trc
DataRate	CameraRate	NumFrames	NumMarkers	Units	OrigDataRate	OrigDataStartFrame	OrigNumFrames
100.00	100.00	      14	9	mm	100.00	5251	      7000
Frame#	Time	front left toe			Front right toe			aft left toe			aft right toe			Arm			FL body			FR body			AL Body			AR Body			
		X1	Y1	Z1	X2	Y2	Z2	X3	Y3	Z3	X4	Y4	Z4	X5	Y5	Z5	X6	Y6	Z6	X7	Y7	Z7	X8	Y8	Z8	X9	Y9	Z9	

5251	52.500	-148.69435	7.25877	-241.32938	250.30638	8.07238	-175.25659	-237.83807	36.33648	395.88638	171.54874	33.03091	411.53305	91.75605	1051.02417	-649.16150	-5.98387	560.63947	-354.82932	150.85898	558.20404	-333.05768	-124.40954	607.18646	581.20624	25.72142	596.11957	601.90399	
5252	52.510	-148.73950	7.33434	-241.31761	250.28685	8.13295	-175.18103	-237.82220	36.20043	395.97070	171.51222	32.86556	411.59760	91.79152	1051.17212	-648.81360	-5.88295	560.73285	-354.70007	150.82153	558.24408	-332.94415	-124.40131	607.11108	581.37585	25.88733	595.95325	602.06787	
5253	52.520	-148.84944	7.42392	-241.28734	250.26350	8.24270	-175.10043	-237.88152	36.11744	396.05133	171.53459	32.74033	411.63013	91.77953	1051.36914	-648.46185	-5.81581	560.75714	-354.49609	150.78056	558.23651	-332.83054	-124.43604	607.00317	581.49310	25.90181	595.86713	602.13141	
5254	52.530	-148.98276	7.50766	-241.25279	249.98987	8.22335	-175.11180	-237.99359	36.05861	396.03424	171.48334	32.62474	411.66068	91.84329	1051.45642	-648.21515	-5.67301	560.70081	-354.18695	150.76146	558.22937	-332.66580	-124.41508	606.89661	581.68091	25.99349	595.74634	602.17090	
5255	52.540	-149.10791	7.52271	-241.20358	249.81792	8.25687	-175.05511	-237.89479	35.80537	396.55249	171.28400	32.60509	411.71832	91.84459	1051.48560	-648.05457	-5.36374	560.43225	-353.66644	150.80153	558.19409	-332.49066	-124.51119	606.79431	582.06891	25.87608	595.49249	602.32855	
5256	52.550	-149.32298	7.62341	-241.11853	249.58559	8.20274	-175.04240	-238.08644	35.70609	396.65076	171.16466	32.44095	411.71964	91.87750	1051.51379	-647.88971	-5.46872	560.53961	-353.50894	150.82047	558.23853	-332.37851	-124.49770	606.55957	582.29352	25.82106	595.33057	602.60394	
5257	52.560	-149.46352	7.69687	-241.06589	249.56059	8.25535	-174.99782	-238.22937	35.63863	396.72485	171.03809	32.29493	411.78748	91.98927	1051.60120	-647.71094	-5.44219	560.63098	-353.40613	150.60733	558.27448	-332.50122	-124.38098	606.43701	582.48541	25.78899	595.20148	602.85571	
5258	52.570	-149.52441	7.75126	-241.03171	249.45782	8.27121	-175.01518	-238.31223	35.56271	396.74823	170.90257	32.22499	411.80515	91.99937	1051.68152	-647.57257	-5.51161	560.70618	-353.27414	150.58740	558.24084	-332.32611	-124.32687	606.36646	582.61761	25.70605	595.11188	603.03503	
5259	52.580	-149.58705	7.76707	-241.01178	249.33397	8.34844	-174.91380	-238.49243	35.52063	396.74844	170.66396	32.09231	411.83279	92.17329	1051.82922	-647.32355	-5.62890	560.76526	-353.16309	151.24287	558.13647	-332.17206	-124.33969	606.27606	582.73511	25.63325	594.98242	603.16077	
5260	52.590	-149.62856	7.73384	-240.97804	249.43799	8.45487	-174.77541	-238.79733	35.65259	396.38358	170.42532	32.00523	411.87646	92.49324	1051.73755	-647.16107	-5.72028	560.74591	-353.00415	151.24001	558.07715	-331.96521	-124.35645	606.12970	582.79181	25.52466	594.84149	603.27869	
5261	52.600	-149.71329	7.73246	-240.93585	249.23579	8.36861	-174.81168	-238.81168	35.46916	396.71857	169.91930	31.78035	411.90909	92.38420	1051.89844	-647.01215	-5.83446	560.75269	-352.94974	150.64522	558.26282	-331.73425	-124.35720	606.04877	582.84393	25.48237	594.69696	603.37793	
5262	52.610	-149.90596	7.78223	-240.89793	249.13104	8.39936	-174.69911	-238.99763	35.50137	396.70975	169.77130	31.70052	411.91895	92.66826	1051.74072	-646.73914	-5.92135	560.88977	-352.91583	150.65482	558.32825	-331.58759	-124.34443	605.96021	582.90167	25.36359	594.60175	603.45361	
5263	52.620	-150.00208	7.81617	-240.88885	249.05220	8.44106	-174.66133	-239.16289	35.47792	396.70410	169.59682	31.60077	411.96518	92.59930	1051.76465	-646.57239	-5.93432	561.05225	-352.85336	150.58923	558.38910	-331.39148	-124.47227	605.90381	582.96832	25.26347	594.56738	603.49890	
5264	52.630	-150.15070	7.79446	-240.88554	248.76796	8.48767	-174.60799	-239.36005	35.44145	396.76108	169.51204	31.51832	411.96274	92.14542	1051.92395	-646.44080	-5.97842	561.10126	-352.79764	150.61661	558.41931	-331.31363	-124.66177	605.85754	582.99969	25.00739	594.55530	603.57007	
